<svg xmlns="http://www.w3.org/2000/svg" viewBox="0 0 969.28 270.11"><defs><style>.cls-1{fill:#626168;}.cls-2{fill:#e3294a;}.cls-3{fill:#f36e21;}</style></defs><title>Varlık 1</title><g id="katman_2" data-name="katman 2"><g id="katman_1-2" data-name="katman 1"><path class="cls-1" d="M313.55,138.55l0-15a40,40,0,0,0-9.46-1.54c-18.86,0-30.32,7.7-30.33,27.7l0,50.28H293.4l.06-50.81h0c.24-8.16,5.48-12.07,11.93-12.07a31.12,31.12,0,0,1,8.14,1.45"/><path class="cls-1" d="M154.06,154.13l-13.22,0,0,29.36h12.42c13.05,0,19.52-5.78,19.54-15.46,0-8.22-6.79-13.87-18.71-13.87m-3.65-44h-9.53l0,27.72h11.62a14,14,0,0,0,13.86-14c0-8.06-5.14-13.68-15.92-13.7M155,199.89l-33.7,0,.1-105.8,33.84,0c20.8,0,30.61,13.34,30.6,26.24,0,9.18-4.51,17.54-13.23,21.88v.16A26,26,0,0,1,192.74,168c0,15.13-11,31.89-37.74,31.87"/><path class="cls-1" d="M111.29,199.89c-1.34.07-2.69.08-4,.08C88.4,200,77,192.21,77,172.22l.07-78.13H96.71l-.07,78.68h0c.25,8.78,6.55,12.37,14.46,12.37h.11Z"/><polygon class="cls-1" points="385.11 94.36 404.76 94.38 404.72 153.97 433.85 122.23 457.25 122.25 429.96 151.5 459.39 200.13 436.32 200.11 416.25 166.42 404.68 178.79 404.65 200.09 385.02 200.07 385.11 94.36"/><path class="cls-1" d="M502.57,181.72A20.05,20.05,0,0,1,489,186.43c-8.07,0-12.43-4.33-12.41-10.63,0-6.46,5.05-9.76,15.14-10.3,3.29-.17,10.87-.32,10.87-.32Zm0-29.92-13.43.48c-19.5.62-31.92,9.16-31.93,24.94,0,15,10.94,24.54,25,24.55a31.63,31.63,0,0,0,22.09-8.38l3.2,6.77,16.29,0c-1.12-3.55-1.54-9.19-1.53-20.13l0-30.16c0-20-11.42-27.74-30.28-27.75a92.22,92.22,0,0,0-19.48,2.06V139s6-2.87,15.28-2.1c7.29.6,14.57,4.32,14.79,12.47Z"/><path class="cls-1" d="M353.7,181.59a20.21,20.21,0,0,1-13.59,4.73c-8.09,0-12.42-4.35-12.42-10.64,0-6.46,5.06-9.77,15.18-10.3,3.25-.17,10.84-.33,10.84-.33Zm0-29.92-13.41.48c-19.49.62-31.93,9.17-31.94,25,0,15,10.94,24.51,25,24.52a31.61,31.61,0,0,0,22.08-8.36l3.22,6.77h16.27c-1.12-3.56-1.54-9.19-1.53-20.15l0-30.15c0-20-11.4-27.74-30.29-27.75a91.85,91.85,0,0,0-19.45,2.07v14.76s6-2.87,15.29-2.1c7.28.59,14.57,4.32,14.78,12.47Z"/><path class="cls-1" d="M242.27,181.5a20,20,0,0,1-13.6,4.73c-8,0-12.39-4.36-12.39-10.64,0-6.45,5.06-9.76,15.15-10.3,3.28-.16,10.86-.31,10.86-.31Zm0-29.91-13.44.48c-19.49.62-31.93,9.17-31.94,25,0,15,11,24.51,25,24.52A31.57,31.57,0,0,0,244,193.18l3.23,6.78h16.26c-1.11-3.55-1.53-9.18-1.52-20.14l0-30.15c0-20-11.43-27.74-30.29-27.75a93.45,93.45,0,0,0-19.45,2v14.77s6-2.86,15.27-2.1c7.32.6,14.58,4.32,14.8,12.48Z"/><path class="cls-1" d="M45.37,181.34a20.16,20.16,0,0,1-13.61,4.72c-8.07,0-12.42-4.34-12.41-10.63,0-6.46,5.07-9.76,15.16-10.29,3.28-.18,10.86-.32,10.86-.32Zm0-29.9L32,151.91c-19.52.61-31.94,9.16-31.95,25,0,15,10.94,24.51,25,24.53A31.5,31.5,0,0,0,47.06,193l3.22,6.79H66.56c-1.13-3.55-1.54-9.17-1.52-20.13V149.52c0-20-11.43-27.75-30.29-27.75a92.08,92.08,0,0,0-19.46,2l0,14.77s6-2.88,15.29-2.1c7.31.61,14.57,4.3,14.8,12.47Z"/><path class="cls-2" d="M961.26,126.31l-26-42.14-.07,69.35c0,7.15-5.7,15.41-15.33,15.45a15.65,15.65,0,0,1-15.55-16c0-2,1-4.8,1.61-6.55l24.45-70.16-11-17.9-41.48,69.42h0a48.68,48.68,0,0,0-7.34,26.46c.11,25.81,22.13,48.73,49.44,48.6s49.32-23.38,49.22-49a49.86,49.86,0,0,0-8-27.5"/><path class="cls-3" d="M814.74,76.53l26,42.15.06-69.34c0-7.15,5.7-15.42,15.35-15.45a15.62,15.62,0,0,1,15.53,16c0,1.94-1,4.77-1.6,6.52L845.59,126.6l11,17.89,41.45-69.4a49.79,49.79,0,0,0,7.4-26.64C905.34,22.63,883.27-.1,856,0s-49.35,23.41-49.25,49.05a49.74,49.74,0,0,0,8,27.48"/><polygon class="cls-3" points="547.06 113.43 516.86 113.43 516.86 95.97 601.33 95.97 595.98 113.43 568.61 113.43 568.61 199.63 547.06 199.63 547.06 113.43"/><path class="cls-3" d="M593.65,163c0-22.5,12.11-39.64,34.45-39.64,21.71,0,34.29,15.26,34.29,40.27v4.87H615.05c.31,10.38,8.33,16.2,19.66,16.2a36.51,36.51,0,0,0,19-5l6.13,14.47a51.6,51.6,0,0,1-27,7.08c-28.31,0-39.17-18.72-39.17-38.22M641,154.17c-.16-7.4-3.93-14.79-13.21-14.79-8.5,0-13.06,7.08-13.06,14.79Z"/><path class="cls-3" d="M671.16,162.82c0-23.6,18.24-39.48,40.1-39.48,10.07,0,16.68,2.83,20.61,5.35v17.77a28.53,28.53,0,0,0-18.24-6.29c-13.06,0-20.77,9.91-20.77,22.49,0,14,7.87,21.55,19.82,21.55,6.61,0,11.64-1.89,17.15-5l6,14.47c-6.13,4.4-15.73,7.55-26.11,7.55-24.69,0-38.53-16.52-38.53-38.38"/><path class="cls-3" d="M745.43,88.26h21.23v44.83c6.45-5.5,15-9.75,24.23-9.75,12,0,24.54,5.19,24.54,27.37v48.92H794V157.16c0-8.34-1.57-15.42-10.69-15.42-5.51,0-11.64,2.68-16.68,6.61v51.28H745.43Z"/><path class="cls-2" d="M582.6,266.41a40,40,0,0,1-17.16,3.7c-15.47,0-24.08-9.42-24.08-21.93,0-13.39,9.95-23.55,25.36-23.55a42,42,0,0,1,13.39,2.08v9.49a28.68,28.68,0,0,0-12.58-3c-10.09,0-15.21,5.92-15.21,14.47,0,8.27,4.85,13.92,13.66,13.92a18.37,18.37,0,0,0,6.33-.94V247.5H582.6Z"/><path class="cls-2" d="M598.61,225.1H608.9v36.06h15.21v8.27h-25.5Z"/><path class="cls-2" d="M633.32,247.37c0-13.46,9.36-22.74,22.88-22.74s22.87,9.28,22.87,22.74-9.35,22.74-22.87,22.74S633.32,260.82,633.32,247.37Zm34.79,0c0-9.42-4.92-14.2-11.91-14.2s-11.91,4.78-11.91,14.2,4.91,14.19,11.91,14.19S668.11,256.79,668.11,247.37Z"/><path class="cls-2" d="M693.47,225.1h14.87c9.62,0,13.92,5.65,13.92,11.23a10.1,10.1,0,0,1-5,8.82v.13a10.64,10.64,0,0,1,8.14,10.63c0,6.53-5.25,13.52-15.88,13.52h-16Zm13.39,17.76c3.56,0,5.38-2.15,5.38-4.57,0-2.63-1.82-4.78-5.65-4.78h-2.83v9.35ZM708,261.09c4.91,0,7.07-1.68,7.07-5.25,0-3-2.29-4.64-6.13-4.64h-5.18v9.89Z"/><path class="cls-2" d="M751.12,224.9h8.08l18.36,44.53H766.73l-4.24-10.56H748.1l-4,10.56H733.7Zm8.28,25.76-2.09-6.12c-1-3-1.54-4.91-1.88-6.32h-.13a52.16,52.16,0,0,1-2.09,6.39l-2.22,6Z"/><path class="cls-2" d="M789.07,225.1h10.29v36.06h15.21v8.27h-25.5Z"/></g></g></svg>