<?xml version="1.0" encoding="UTF-8" standalone="no"?><!DOCTYPE svg PUBLIC "-//W3C//DTD SVG 1.1//EN" "http://www.w3.org/Graphics/SVG/1.1/DTD/svg11.dtd"><svg width="100%" height="100%" viewBox="0 0 677 846" version="1.1" xmlns="http://www.w3.org/2000/svg" xmlns:xlink="http://www.w3.org/1999/xlink" xml:space="preserve" xmlns:serif="http://www.serif.com/" style="fill-rule:evenodd;clip-rule:evenodd;stroke-linejoin:round;stroke-miterlimit:2;"><path d="M643.799,526.293l-108.333,-175.583l-0.292,288.958c0,29.792 -23.75,64.208 -63.875,64.375c-35.62,-0.219 -64.808,-29.586 -64.808,-65.207c0,-0.487 0.005,-0.973 0.016,-1.46c0,-8.333 4.167,-20 6.708,-27.292l101.875,-292.333l-45.833,-74.583l-172.833,289.25c-20.561,33.05 -31.18,71.331 -30.583,110.25c0.458,107.542 92.208,203.042 206,202.5c113.792,-0.542 205.5,-97.417 205.083,-204.167c0.334,-40.628 -11.258,-80.475 -33.333,-114.583" style="fill:#e3294a;fill-rule:nonzero;"/><path d="M33.299,318.876l108.333,175.625l0.25,-288.917c0,-29.792 23.75,-64.25 63.958,-64.375c35.569,0.194 64.728,29.513 64.728,65.082c0,0.528 -0.006,1.056 -0.019,1.584c0,8.083 -4.167,19.875 -6.667,27.167l-102.042,292.458l45.833,74.542l172.708,-289.167c20.549,-33.344 31.241,-71.835 30.833,-111c-0.417,-107.583 -92.375,-202.292 -206,-201.875c-113.625,0.417 -205.625,97.542 -205.208,204.375c-0.347,40.603 11.247,80.427 33.333,114.5" style="fill:#f36e21;fill-rule:nonzero;"/></svg>