<?xml version="1.0"?>
<svg width="810" height="809.999993" xmlns="http://www.w3.org/2000/svg" xmlns:svg="http://www.w3.org/2000/svg" preserveAspectRatio="xMidYMid meet" version="1.0">
 <defs>
  <clipPath id="cc3cb9589c">
   <path clip-rule="nonzero" d="m402.38,-28.39l438.05,438.05l-432.75,432.75l-438.05,-438.05l432.75,-432.75zm0,0" id="svg_1"/>
  </clipPath>
  <clipPath id="c95b1387e5">
   <path clip-rule="nonzero" d="m959.69,-1984.29l2943.33,2943.33l-2943.33,2943.33l-2943.33,-2943.33l2943.33,-2943.33zm0,0" id="svg_2"/>
  </clipPath>
  <clipPath id="3d9e67cbb5">
   <path clip-rule="nonzero" d="m323,634l165,0l0,164l-165,0l0,-164zm0,0" id="svg_3"/>
  </clipPath>
  <clipPath id="90a5a3291c">
   <path clip-rule="nonzero" d="m402.38,-28.39l438.05,438.05l-432.75,432.75l-438.05,-438.05l432.75,-432.75zm0,0" id="svg_4"/>
  </clipPath>
  <clipPath id="05a02d9d4e">
   <path clip-rule="nonzero" d="m959.69,-1984.29l2943.33,2943.33l-2943.33,2943.33l-2943.33,-2943.33l2943.33,-2943.33zm0,0" id="svg_5"/>
  </clipPath>
  <clipPath id="9d81f239d0">
   <path clip-rule="nonzero" d="m317,11l165,0l0,165l-165,0l0,-165zm0,0" id="svg_6"/>
  </clipPath>
  <clipPath id="0622e3dacb">
   <path clip-rule="nonzero" d="m402.38,-28.39l438.05,438.05l-432.75,432.75l-438.05,-438.05l432.75,-432.75zm0,0" id="svg_7"/>
  </clipPath>
  <clipPath id="1bc2885b1d">
   <path clip-rule="nonzero" d="m959.69,-1984.29l2943.33,2943.33l-2943.33,2943.33l-2943.33,-2943.33l2943.33,-2943.33zm0,0" id="svg_8"/>
  </clipPath>
  <clipPath id="bdd4bea821">
   <path clip-rule="nonzero" d="m631,321l164,0l0,165l-164,0l0,-165zm0,0" id="svg_9"/>
  </clipPath>
  <clipPath id="d3667f5b78">
   <path clip-rule="nonzero" d="m402.38,-28.39l438.05,438.05l-432.75,432.75l-438.05,-438.05l432.75,-432.75zm0,0" id="svg_10"/>
  </clipPath>
  <clipPath id="8751e05af4">
   <path clip-rule="nonzero" d="m959.69,-1984.29l2943.33,2943.33l-2943.33,2943.33l-2943.33,-2943.33l2943.33,-2943.33zm0,0" id="svg_11"/>
  </clipPath>
  <clipPath id="57a53a458d">
   <path clip-rule="nonzero" d="m10,321l475,0l0,165l-475,0l0,-165zm0,0" id="svg_12"/>
  </clipPath>
  <clipPath id="fbadbbf5d0">
   <path clip-rule="nonzero" d="m402.38,-28.39l438.05,438.05l-432.75,432.75l-438.05,-438.05l432.75,-432.75zm0,0" id="svg_13"/>
  </clipPath>
  <clipPath id="e3325e1966">
   <path clip-rule="nonzero" d="m959.69,-1984.29l2943.33,2943.33l-2943.33,2943.33l-2943.33,-2943.33l2943.33,-2943.33zm0,0" id="svg_14"/>
  </clipPath>
  <clipPath id="a3ff929994">
   <path clip-rule="nonzero" d="m166,477l475,0l0,165l-475,0l0,-165zm0,0" id="svg_15"/>
  </clipPath>
  <clipPath id="55f5ff6e5c">
   <path clip-rule="nonzero" d="m402.38,-28.39l438.05,438.05l-432.75,432.75l-438.05,-438.05l432.75,-432.75zm0,0" id="svg_16"/>
  </clipPath>
  <clipPath id="f635e8aacb">
   <path clip-rule="nonzero" d="m959.69,-1984.29l2943.33,2943.33l-2943.33,2943.33l-2943.33,-2943.33l2943.33,-2943.33zm0,0" id="svg_17"/>
  </clipPath>
  <clipPath id="15c38536a3">
   <path clip-rule="nonzero" d="m166,165l475,0l0,164l-475,0l0,-164zm0,0" id="svg_18"/>
  </clipPath>
  <clipPath id="5d43d77a90">
   <path clip-rule="nonzero" d="m402.38,-28.39l438.05,438.05l-432.75,432.75l-438.05,-438.05l432.75,-432.75zm0,0" id="svg_19"/>
  </clipPath>
  <clipPath id="8391b40230">
   <path clip-rule="nonzero" d="m959.69,-1984.29l2943.33,2943.33l-2943.33,2943.33l-2943.33,-2943.33l2943.33,-2943.33zm0,0" id="svg_20"/>
  </clipPath>
 </defs>
 <g class="layer">
  <title>Layer 1</title>
  <g clip-path="url(#3d9e67cbb5)" id="svg_24">
   <g clip-path="url(#90a5a3291c)" id="svg_25">
    <g clip-path="url(#05a02d9d4e)" id="svg_26">
     <path d="m347.52,773.96c-15.46,-15.46 -23.98,-36.02 -23.97,-57.87c-0.03,-21.86 8.49,-42.41 23.95,-57.88c15.45,-15.44 35.99,-23.95 57.82,-23.95c21.86,0 42.43,8.52 57.89,23.97c15.45,15.46 23.97,35.99 23.97,57.84c-0.01,45.13 -36.73,81.85 -81.86,81.85c-21.83,0 -42.36,-8.51 -57.8,-23.96zm0,0" fill="currentColor" fill-rule="nonzero" id="svg_27"/>
    </g>
   </g>
  </g>
  <g clip-path="url(#9d81f239d0)" id="svg_28">
   <g clip-path="url(#0622e3dacb)" id="svg_29">
    <g clip-path="url(#1bc2885b1d)" id="svg_30">
     <path d="m341.72,151.14c-15.46,-15.46 -23.97,-36.02 -23.97,-57.89c-0.02,-21.85 8.49,-42.4 23.95,-57.86c15.46,-15.45 35.98,-23.96 57.8,-23.95c21.89,-0.01 42.46,8.51 57.93,23.98c15.44,15.44 23.96,35.98 23.95,57.81c0,21.88 -8.51,42.44 -23.97,57.9c-15.46,15.46 -36,23.97 -57.87,23.97c-21.84,-0.01 -42.38,-8.52 -57.82,-23.96zm0,0" fill="currentColor" fill-rule="nonzero" id="svg_31"/>
    </g>
   </g>
  </g>
  <g clip-path="url(#bdd4bea821)" id="svg_32">
   <g clip-path="url(#d3667f5b78)" id="svg_33">
    <g clip-path="url(#8751e05af4)" id="svg_34">
     <path d="m655.14,461.18c-15.46,-15.48 -23.97,-36.03 -23.97,-57.88c0.01,-45.12 36.7,-81.84 81.78,-81.84c21.87,0 42.43,8.5 57.91,23.97c15.44,15.45 23.95,36.01 23.96,57.86c0,45.1 -36.72,81.82 -81.86,81.86c-21.83,-0.02 -42.37,-8.53 -57.82,-23.97zm0,0" fill="currentColor" fill-rule="nonzero" id="svg_35"/>
    </g>
   </g>
  </g>
  <g clip-path="url(#57a53a458d)" id="svg_36">
   <g clip-path="url(#fbadbbf5d0)" id="svg_37">
    <g clip-path="url(#e3325e1966)" id="svg_38">
     <path d="m34.71,461.16c-15.46,-15.46 -23.97,-36.03 -23.99,-57.9c0,-21.85 8.51,-42.38 23.98,-57.84c15.45,-15.45 36.01,-23.94 57.87,-23.94c4.59,-0.01 9.28,0.46 14.78,1.52c1.67,0.3 3.13,0.67 4.65,1.04c3.37,0.91 6.63,1.92 9.53,3c1.57,0.6 3.18,1.21 4.8,1.94c2.85,1.3 5.86,2.94 9.15,4.96c0.67,0.39 1.26,0.73 1.87,1.07c0.38,0.21 0.77,0.4 1.14,0.63l13.76,12.01c1.56,1.7 3.1,3.66 4.72,5.76l0.64,0.84c0.39,0.49 0.93,1.13 1.49,1.75l0.48,0.56l0.47,0.71l0.52,0.51c0.9,0.98 1.83,1.93 2.76,2.86c22.2,22.21 53.57,34.66 86.06,34.21c32.35,-0.46 63.2,-13.74 84.65,-36.46l0.64,-0.67l0.57,-0.81c0.49,-0.73 1.08,-1.39 1.66,-2.06c0.69,-0.8 1.36,-1.6 2.01,-2.43l1.16,-1.44c0.99,-1.24 1.94,-2.45 2.98,-3.64l13.91,-11.93c0.39,-0.26 0.8,-0.44 1.21,-0.67l1.02,-0.56c3.05,-1.86 6.14,-3.68 9.44,-5.13c1.82,-0.88 3.28,-1.42 4.79,-1.95c3.29,-1.23 6.41,-2.21 9.77,-3.06c1.46,-0.37 2.92,-0.77 4.44,-1.04c5.74,-1.07 10.47,-1.54 14.89,-1.55c21.85,0 42.39,8.51 57.87,24c15.45,15.44 23.99,36 24.01,57.85c-0.03,45.09 -36.76,81.79 -81.89,81.79c-4.57,0.01 -9.25,-0.48 -14.79,-1.52c-1.62,-0.31 -3.07,-0.68 -4.53,-1.05c-3.32,-0.84 -6.52,-1.83 -9.57,-2.96c-1.64,-0.62 -3.29,-1.22 -4.79,-1.92c-3.04,-1.39 -6.08,-3.03 -9.1,-4.94l-1.78,-1c-0.4,-0.24 -0.8,-0.44 -1.2,-0.67l-13.93,-12.08c-1.46,-1.59 -2.85,-3.4 -4.33,-5.31l-1.01,-1.29c-0.32,-0.45 -0.88,-1.1 -1.46,-1.75l-0.41,-0.5l-0.53,-0.79l-0.52,-0.52c-0.92,-0.98 -1.84,-1.93 -2.78,-2.87c-22.2,-22.2 -53.56,-34.66 -86.04,-34.19c-32.36,0.46 -63.23,13.76 -84.69,36.47l-0.63,0.68l-0.54,0.77c-0.51,0.75 -1.1,1.4 -1.67,2.07c-0.7,0.8 -1.36,1.6 -2.01,2.42c-0.41,0.47 -1.12,1.35 -1.8,2.23c-0.8,0.99 -1.54,1.96 -2.43,2.85l-0.31,0.32l-13.32,11.45c-0.32,0.2 -2.17,1.21 -2.73,1.54c-3.3,2.04 -6.37,3.7 -9.28,5.04c-1.62,0.75 -3.08,1.34 -4.66,1.89c-3.2,1.19 -6.4,2.21 -9.78,3.11c-1.42,0.34 -3.09,0.72 -4.74,1.06c-5.27,0.96 -10.02,1.45 -14.61,1.46c-21.82,0.02 -42.36,-8.48 -57.82,-23.94l0,-0.01l-0.02,0.02zm0,0" fill="currentColor" fill-rule="nonzero" id="svg_39"/>
    </g>
   </g>
  </g>
  <g clip-path="url(#a3ff929994)" id="svg_40">
   <g clip-path="url(#55f5ff6e5c)" id="svg_41">
    <g clip-path="url(#f635e8aacb)" id="svg_42">
     <path d="m190.96,617.41c-15.47,-15.48 -23.98,-36.04 -23.98,-57.91c0,-21.85 8.5,-42.38 23.96,-57.85c15.44,-15.45 35.97,-23.96 57.78,-23.94c4.48,-0.01 9.07,0.45 14.92,1.52c1.43,0.28 2.93,0.63 4.45,1.05c3.39,0.85 6.52,1.82 9.62,2.96c1.64,0.62 3.25,1.22 4.79,1.92c2.95,1.36 5.97,3 9,4.94c0,0 2.63,1.44 2.95,1.64l14.05,12.13c1.47,1.61 2.91,3.5 4.43,5.47l0.84,1.1c0.58,0.7 1.07,1.29 1.59,1.85c0.2,0.23 0.42,0.44 0.6,0.67l0.36,0.47l0.49,0.59c0.93,0.99 1.88,1.98 2.83,2.94c22.17,22.15 53.49,34.59 85.93,34.12c32.33,-0.45 63.21,-13.76 84.66,-36.47l2.62,-2.78l0.06,-0.54c0.08,-0.1 0.18,-0.2 0.28,-0.31c0.59,-0.66 1.19,-1.34 1.76,-2.03l1.64,-2.07c0.91,-1.14 1.78,-2.27 2.76,-3.33l13.42,-11.63c0.38,-0.23 2.38,-1.33 2.95,-1.69c3.73,-2.26 6.56,-3.8 9.24,-5.02c1.58,-0.75 3.15,-1.31 4.78,-1.92c2.94,-1.09 6.08,-2.06 9.66,-3l0.66,-0.16c1.21,-0.32 2.39,-0.64 3.65,-0.84c5.83,-1.08 10.53,-1.58 14.97,-1.58c21.88,0 42.45,8.53 57.91,23.99c15.45,15.45 23.96,35.98 23.96,57.83c0,45.1 -36.73,81.83 -81.85,81.86c-4.37,-0.01 -9.09,-0.51 -14.83,-1.56c-1.1,-0.21 -2.1,-0.46 -3.1,-0.71l-1.64,-0.38c-3.09,-0.79 -6.3,-1.79 -9.3,-2.9c-1.67,-0.64 -3.26,-1.23 -4.85,-1.96c-2.78,-1.25 -5.66,-2.84 -9.15,-4.99c-0.7,-0.43 -1.29,-0.74 -1.88,-1.05c-0.4,-0.24 -0.79,-0.44 -1.17,-0.67l-13.75,-11.97c-1.8,-1.97 -3.56,-4.28 -5.27,-6.51c-0.59,-0.76 -1.08,-1.3 -1.57,-1.84c-0.19,-0.21 -0.38,-0.4 -0.55,-0.63l-0.98,-1.21c-0.92,-0.99 -1.85,-1.96 -2.8,-2.91c-22.18,-22.17 -53.5,-34.6 -85.96,-34.15c-32.35,0.48 -63.2,13.78 -84.65,36.53l-0.63,0.66l-0.51,0.77c-0.54,0.78 -1.18,1.47 -1.79,2.18c-0.63,0.72 -1.25,1.44 -1.82,2.16c-0.51,0.59 -1.13,1.38 -1.73,2.13c-0.86,1.09 -1.73,2.19 -2.68,3.19l-13.65,11.75c-0.35,0.22 -2.55,1.43 -2.55,1.43c-3.31,2.07 -6.35,3.73 -9.39,5.13c-1.43,0.66 -2.88,1.21 -4.4,1.79l-0.53,0.21c-3.02,1.1 -6.15,2.07 -9.35,2.87c-1.58,0.39 -3.13,0.78 -4.66,1.08c-5.56,1.02 -10.31,1.5 -14.9,1.52c-21.75,-0.01 -42.25,-8.5 -57.7,-23.94zm0,0" fill="currentColor" fill-rule="nonzero" id="svg_43"/>
    </g>
   </g>
  </g>
  <g clip-path="url(#15c38536a3)" id="svg_44" transform="matrix(1 0 0 1 0 0)">
   <g clip-path="url(#5d43d77a90)" id="svg_45">
    <g clip-path="url(#8391b40230)" id="svg_46">
     <path d="m190.96,304.96c-15.46,-15.46 -23.99,-36.01 -23.99,-57.85c0.01,-21.88 8.52,-42.43 23.97,-57.9c15.44,-15.46 35.95,-23.97 57.79,-23.96c4.48,0 9.21,0.5 14.88,1.54c1.46,0.28 3.05,0.67 4.63,1.06c3.19,0.82 6.31,1.78 9.49,2.95c1.64,0.61 3.25,1.22 4.87,1.96c2.91,1.35 5.95,3 8.94,4.9l1.88,1.07c0.35,0.18 0.71,0.36 1.03,0.57l14.04,12.15c1.63,1.77 3.23,3.85 4.9,6.04l0.34,0.46c0.61,0.74 1.1,1.29 1.6,1.85c0.18,0.19 0.37,0.38 0.53,0.59l0.46,0.67l0.51,0.55c0.95,1 1.88,1.97 2.84,2.93c22.15,22.15 53.47,34.59 85.92,34.11c32.36,-0.47 63.21,-13.78 84.67,-36.51l0.62,-0.66l0.5,-0.75c0.56,-0.84 1.26,-1.56 1.93,-2.33c0.55,-0.61 1.09,-1.24 1.64,-1.9l1.59,-1.99c0.92,-1.19 1.86,-2.4 2.91,-3.5l13.02,-11.28l0.36,-0.2l0.24,-0.24c0.35,-0.22 2.44,-1.35 2.44,-1.35c3.85,-2.38 6.75,-3.97 9.47,-5.22c1.5,-0.68 3.11,-1.26 4.75,-1.87c3.02,-1.14 6.23,-2.14 9.65,-3.01l0.53,-0.13c1.34,-0.33 2.66,-0.67 4.06,-0.94c5.62,-1.03 10.33,-1.53 14.73,-1.52c21.87,0 42.43,8.52 57.9,23.99c15.46,15.46 23.97,36 23.99,57.86c-0.02,45.11 -36.75,81.82 -81.86,81.81c-4.48,0.01 -9.3,-0.49 -14.76,-1.55c-1.51,-0.25 -2.72,-0.57 -3.98,-0.89l-0.68,-0.18c-3.39,-0.86 -6.58,-1.85 -9.45,-2.91c-1.71,-0.64 -3.29,-1.24 -4.82,-1.93c-2.98,-1.37 -5.96,-2.99 -9.16,-4.99c-0.68,-0.41 -1.32,-0.76 -1.95,-1.12c-0.38,-0.21 -0.77,-0.42 -1.15,-0.65l-13.73,-11.93c-1.54,-1.71 -3.06,-3.66 -4.65,-5.72l-0.69,-0.88c-0.51,-0.67 -1.04,-1.24 -1.53,-1.8c-0.2,-0.23 -0.42,-0.45 -0.6,-0.7l-0.37,-0.48l-0.52,-0.61c-0.92,-0.99 -1.86,-1.96 -2.81,-2.92c-22.17,-22.16 -53.48,-34.6 -85.92,-34.14c-32.36,0.46 -63.23,13.78 -84.71,36.51l-0.62,0.66l-0.52,0.75c-0.51,0.78 -1.16,1.48 -1.77,2.18c-0.63,0.73 -1.24,1.44 -1.85,2.19c-0.49,0.6 -1.1,1.36 -1.7,2.13c-0.86,1.08 -1.68,2.15 -2.62,3.13l-13.54,11.69c-0.39,0.25 -0.83,0.48 -1.27,0.72l-1.45,0.81c-3.47,2.17 -6.5,3.85 -9.36,5.16c-1.51,0.68 -3.17,1.28 -4.85,1.91c-3.03,1.13 -6.16,2.11 -9.52,2.94c-1.6,0.41 -3.1,0.8 -4.59,1.08c-5.81,1.07 -10.38,1.55 -14.83,1.53c-21.85,-0.01 -42.37,-8.51 -57.8,-23.94zm0,0" fill="currentColor" fill-rule="nonzero" id="svg_47"/>
    </g>
   </g>
  </g>
 </g>
</svg>